<?xml version="1.0" encoding="UTF-8" standalone="no"?>
<!DOCTYPE svg PUBLIC "-//W3C//DTD SVG 1.1//EN"
 "http://www.w3.org/Graphics/SVG/1.1/DTD/svg11.dtd">
<!-- Generated by graphviz version 2.36.0 (20140111.2315)
 -->
<!-- Title: models_diagram Pages: 1 -->
<svg width="483pt" height="228pt"
 viewBox="0.00 0.00 483.00 228.00" xmlns="http://www.w3.org/2000/svg" xmlns:xlink="http://www.w3.org/1999/xlink">
<g id="graph0" class="graph" transform="scale(1 1) rotate(0) translate(4 224)">
<title>models_diagram</title>
<polygon fill="none" stroke="none" points="-4,4 -4,-224 479,-224 479,4 -4,4"/>
<!-- _diagram_info -->
<g id="node1" class="node"><title>_diagram_info</title>
<text text-anchor="start" x="7" y="-198.6" font-family="Times,serif" font-size="13.00">Models diagram</text>
<text text-anchor="start" x="7" y="-184.6" font-family="Times,serif" font-size="13.00">Date: Jun 21 2016 &#45; 21:20</text>
<text text-anchor="start" x="7" y="-170.6" font-family="Times,serif" font-size="13.00">Migration version: 20160622020329</text>
<text text-anchor="start" x="7" y="-156.6" font-family="Times,serif" font-size="13.00">Generated by RailRoady 1.4.2</text>
<text text-anchor="start" x="7" y="-142.6" font-family="Times,serif" font-size="13.00">http://railroady.prestonlee.com</text>
</g>
<!-- Post -->
<g id="node2" class="node"><title>Post</title>
<path fill="none" stroke="black" d="M243,-128.5C243,-128.5 463,-128.5 463,-128.5 469,-128.5 475,-134.5 475,-140.5 475,-140.5 475,-207.5 475,-207.5 475,-213.5 469,-219.5 463,-219.5 463,-219.5 243,-219.5 243,-219.5 237,-219.5 231,-213.5 231,-207.5 231,-207.5 231,-140.5 231,-140.5 231,-134.5 237,-128.5 243,-128.5"/>
<text text-anchor="middle" x="353" y="-204.3" font-family="Times,serif" font-size="14.00">Post</text>
<polyline fill="none" stroke="black" points="231,-196.5 475,-196.5 "/>
<text text-anchor="start" x="239" y="-181.3" font-family="Times,serif" font-size="14.00">id :integer</text>
<text text-anchor="start" x="239" y="-166.3" font-family="Times,serif" font-size="14.00">content :text</text>
<text text-anchor="start" x="239" y="-151.3" font-family="Times,serif" font-size="14.00">created_at :timestamp without time zone</text>
<text text-anchor="start" x="239" y="-136.3" font-family="Times,serif" font-size="14.00">updated_at :timestamp without time zone</text>
</g>
<!-- Comment -->
<g id="node3" class="node"><title>Comment</title>
<path fill="none" stroke="black" d="M243,-0.5C243,-0.5 463,-0.5 463,-0.5 469,-0.5 475,-6.5 475,-12.5 475,-12.5 475,-79.5 475,-79.5 475,-85.5 469,-91.5 463,-91.5 463,-91.5 243,-91.5 243,-91.5 237,-91.5 231,-85.5 231,-79.5 231,-79.5 231,-12.5 231,-12.5 231,-6.5 237,-0.5 243,-0.5"/>
<text text-anchor="middle" x="353" y="-76.3" font-family="Times,serif" font-size="14.00">Comment</text>
<polyline fill="none" stroke="black" points="231,-68.5 475,-68.5 "/>
<text text-anchor="start" x="239" y="-53.3" font-family="Times,serif" font-size="14.00">id :integer</text>
<text text-anchor="start" x="239" y="-38.3" font-family="Times,serif" font-size="14.00">content :text</text>
<text text-anchor="start" x="239" y="-23.3" font-family="Times,serif" font-size="14.00">created_at :timestamp without time zone</text>
<text text-anchor="start" x="239" y="-8.3" font-family="Times,serif" font-size="14.00">updated_at :timestamp without time zone</text>
</g>
<!-- Post&#45;&gt;Comment -->
<g id="edge1" class="edge"><title>Post&#45;&gt;Comment</title>
<path fill="none" stroke="#ae948b" d="M353,-120.022C353,-113.97 353,-107.791 353,-101.716"/>
<ellipse fill="none" stroke="#ae948b" cx="353" cy="-124.222" rx="4" ry="4"/>
<polygon fill="#ae948b" stroke="#ae948b" points="353,-101.633 357.5,-91.6334 353,-96.6335 353,-91.6335 353,-91.6335 353,-91.6335 353,-96.6335 348.5,-91.6335 353,-101.633 353,-101.633"/>
</g>
</g>
</svg>
